<?xml version="1.0" encoding="utf-8"?>
<!-- Generator: Adobe Illustrator 22.1.0, SVG Export Plug-In . SVG Version: 6.00 Build 0)  -->
<svg version="1.1" id="Katenna_Bot_1_" xmlns="http://www.w3.org/2000/svg" xmlns:xlink="http://www.w3.org/1999/xlink" x="0px"
	 y="0px" viewBox="0 0 360 333" style="enable-background:new 0 0 360 333;" xml:space="preserve">
<style type="text/css">
	.st0{fill:#D0D2D3;}
	.st1{fill:#B6B8BB;}
	.st2{fill:#E6E7E8;}
	.st3{fill:#BBBDBF;}
	.st4{fill:#A6A8AB;}
</style>
<g id="Katenna_Bot">
	<g id="Ears">
		<g id="Left_Ear">
			<path class="st0" d="M62.7,157.1c7.3-5.6,14.6-11.3,21.8-17.1c14.2-11.5,46.1-25.8,60.5-37C125.4,36.1,35.8,0,35.8,0
				S2.6,53.9,21.7,121.5c5,17.8,13.5,34.2,23.2,48.7C50.7,165.7,56.9,161.6,62.7,157.1z"/>
			<path class="st1" d="M47.8,154.9c-7.2-12.2-12.5-24.3-15.9-36.3c-13.4-47.6,1-88,8.7-104.8c21.1,10.2,74.3,39.8,91.8,85.1
				c-6.3,4-14.3,8.5-22.1,12.9c-12,6.7-24.4,13.6-32.4,20c-6.7,5.4-13.8,11-21.6,16.9C53.5,150.8,50.7,152.8,47.8,154.9z"/>
		</g>
		<g id="Right_Ear">
			<path class="st0" d="M296.9,157.2c-7.3-5.7-14.5-11.4-21.7-17.2c-14.2-11.5-45.9-26-60.3-37.3C234.8,35.8,324.6,0.2,324.6,0.2
				s32.9,54.1,13.5,121.6c-5.1,17.8-13.6,34.1-23.4,48.6C308.8,165.9,302.7,161.7,296.9,157.2z"/>
			<path class="st1" d="M311.8,155.1c-3-2.1-5.7-4.2-8.5-6.3c-7.7-6-14.8-11.6-21.5-17c-7.9-6.4-20.3-13.4-32.3-20.2
				c-7.8-4.4-15.8-8.9-22.1-13c17.8-45.2,71.1-74.5,92.2-84.6c2.6,5.8,6.1,14.4,8.8,25.1c7,27,6.8,53.8-0.7,79.7
				C324.5,130.8,319.1,143,311.8,155.1z"/>
		</g>
	</g>
	<g>
		<path class="st2" d="M33.9,186.9C33.9,267.6,99.3,333,180,333V40.7C99.3,40.8,33.9,106.2,33.9,186.9z"/>
		<path class="st3" d="M181.2,333c80.1-0.6,144.9-65.8,144.9-146.1c0-80.3-64.8-145.5-144.9-146.1h-1.1c0,0,0,0-0.1,0V333
			c0,0,0,0,0.1,0H181.2z"/>
	</g>
	<g>
		
			<rect x="60.4" y="172.3" transform="matrix(0.2133 -0.977 0.977 0.2133 -181.2484 245.4166)" class="st4" width="2.7" height="125.8"/>
		<polygon class="st4" points="0.5,277.7 0.1,275 119,260.6 119.4,263.3 		"/>
		<polygon class="st4" points="15.7,326.2 14.5,323.7 118.6,275.1 119.8,277.6 		"/>
	</g>
	<g>
		
			<rect x="235.3" y="233.9" transform="matrix(0.9766 -0.2151 0.2151 0.9766 -43.6249 69.6657)" class="st4" width="125.8" height="2.7"/>
		
			<rect x="298.9" y="209.2" transform="matrix(0.1206 -0.9927 0.9927 0.1206 -3.1307 534.7321)" class="st4" width="2.7" height="119.8"/>
		
			<rect x="291.5" y="243.2" transform="matrix(0.4228 -0.9062 0.9062 0.4228 -103.4185 438.9008)" class="st4" width="2.7" height="114.9"/>
	</g>
	<path d="M201.5,233.5l-15.2,15.2c-1.9,1.9-4.4,2.8-6.9,2.6c-2.1-0.1-4.1-1-5.7-2.6l-15.2-15.2c-3.5-3.5-3.5-9.1,0-12.6h43
		C205,224.3,205,230,201.5,233.5z"/>
	<path d="M299.7,127.4H60.3c-23.6,0-42.7,19.1-42.7,42.7c0,23.6,19.1,42.7,42.7,42.7h239.3c23.6,0,42.7-19.1,42.7-42.7
		C342.3,146.5,323.2,127.4,299.7,127.4z"/>
</g>
</svg>
