<?xml version="1.0" encoding="utf-8"?>
<!-- Generator: Adobe Illustrator 22.0.1, SVG Export Plug-In . SVG Version: 6.00 Build 0)  -->
<svg version="1.1" id="Layer_1" xmlns="http://www.w3.org/2000/svg" xmlns:xlink="http://www.w3.org/1999/xlink" x="0px" y="0px"
	 viewBox="0 0 512 512" style="enable-background:new 0 0 512 512;" xml:space="preserve">
<style type="text/css">
	.st0{fill:#93278F;}
	.st1{opacity:0.3;}
	.st2{fill:#71E2EF;}
	.st3{fill:#38C6D9;}
	.st4{fill:#EAA22F;}
	.st5{fill:#E09112;}
	.st6{fill:#FFEDB5;}
	.st7{fill:#FEE187;}
</style>
<circle class="st0" cx="256" cy="256" r="256"/>
<g>
	<path class="st1" d="M275.2,511.3C387,503,478.7,422.9,504.7,317l-169-169l-77.5,140.1l-138-138l-27,27l143.6,143.6L153.9,390
		L275.2,511.3z"/>
	<path class="st1" d="M366.8,126.8l144.7,144.7c0.3-5.1,0.5-10.3,0.5-15.5c0-5.7-0.2-11.4-0.6-17L384.2,111.7L366.8,126.8z"/>
</g>
<circle class="st2" cx="256" cy="229.3" r="113.8"/>
<path class="st3" d="M256,115.5c-0.2,0-0.4,0-0.6,0V343c0.2,0,0.4,0,0.6,0c62.8,0,113.8-50.9,113.8-113.8S318.8,115.5,256,115.5z"/>
<path class="st4" d="M172.1,325.2l-20,43.1c-6.4,13.8,2.9,29.9,17.2,29.9h173.5c14.3,0,23.6-16.2,17.2-29.9l-20-43.1
	c-3.3-7-9.9-11.4-17.2-11.4H189.3C182,313.8,175.3,318.2,172.1,325.2z"/>
<path class="st5" d="M360,368.3l-20-43.1c-3.3-7-9.9-11.4-17.2-11.4h-67.3v84.5h87.3C357.1,398.2,366.4,382,360,368.3z"/>
<path class="st6" d="M171.6,338.7h168.8c5.3,0,9.6-4.3,9.6-9.6v-20.5c0-5.3-4.3-9.6-9.6-9.6H171.6c-5.3,0-9.6,4.3-9.6,9.6v20.5
	C162,334.5,166.3,338.7,171.6,338.7z"/>
<path class="st7" d="M340.4,299.1h-85v39.6h85c5.3,0,9.6-4.3,9.6-9.6v-20.5C350,303.4,345.7,299.1,340.4,299.1z"/>
<g>
	<path class="st2" d="M116.4,163.6l3.7-3.7c2.7-2.7,2.7-7.1,0-9.8c-2.7-2.7-7.1-2.7-9.8,0l-3.7,3.7l-3.7-3.7c-2.7-2.7-7.1-2.7-9.8,0
		c-2.7,2.7-2.7,7.1,0,9.8l3.7,3.7l-3.7,3.7c-2.7,2.7-2.7,7.1,0,9.8c1.3,1.3,3.1,2,4.9,2c1.8,0,3.5-0.7,4.9-2l3.7-3.7l3.7,3.7
		c1.3,1.3,3.1,2,4.9,2c1.8,0,3.5-0.7,4.9-2c2.7-2.7,2.7-7.1,0-9.8L116.4,163.6z"/>
	<path class="st2" d="M412.9,236.2l2.1-2.1c1.7-1.7,1.7-4.4,0-6.1s-4.4-1.7-6.1,0l-2.1,2.1l-2.1-2.1c-1.7-1.7-4.4-1.7-6.1,0
		c-1.7,1.7-1.7,4.4,0,6.1l2.1,2.1l-2.1,2.1c-1.7,1.7-1.7,4.4,0,6.1c0.8,0.8,1.9,1.3,3,1.3s2.2-0.4,3-1.3l2.1-2.1l2.1,2.1
		c0.8,0.8,1.9,1.3,3,1.3s2.2-0.4,3-1.3c1.7-1.7,1.7-4.4,0-6.1L412.9,236.2z"/>
	<path class="st2" d="M381,118.9l2.1-2.1c1.7-1.7,1.7-4.4,0-6.1s-4.4-1.7-6.1,0l-2.1,2.1l-2.1-2.1c-1.7-1.7-4.4-1.7-6.1,0
		s-1.7,4.4,0,6.1l2.1,2.1l-2.1,2.1c-1.7,1.7-1.7,4.4,0,6.1c0.8,0.8,1.9,1.3,3,1.3s2.2-0.4,3-1.3l2.1-2.1l2.1,2.1
		c0.8,0.8,1.9,1.3,3,1.3s2.2-0.4,3-1.3c1.7-1.7,1.7-4.4,0-6.1L381,118.9z"/>
</g>
</svg>
