<svg xmlns="http://www.w3.org/2000/svg" width="500" height="500" viewBox="0 0 500 500"><title>map2</title><g id="bdf2478e-bafd-47c1-9cf7-273bb889fbc0" data-name="Layer 3"><rect width="500" height="500" fill="#efede6"/></g><g id="af63ccb4-73db-4810-a497-331bb3b34b9f" data-name="Layer 1"><path d="M298.92772,115.5664s-6.25,9.75-8.25,9.75-4.5,1.25-6,0-6.75-2.75-7.5-1.75-.5,2.86113-3.75,2.30555-3.5.69445-8.25,1.44445-8.75.75-8.75-5.875v-11.625c0-.75.75-6-7.5-1.25s-9,4.25-10,4-6.75-1.83332-6.5-.33332,2.08332,2.83332,1.16667,5.33332-.5,5.58333,1.83333,5.91668,1.75,2.5.33332,3.33332-3.83332,5.58333-7,5.5-9.58332-3.91667-11.5-5.25a3.42769,3.42769,0,0,0-4.5.16668,4.88794,4.88794,0,0,1-4.66665.83332c-1.75-.66667-4.25,2.25-2.91667,3s3.25,2.33333,2.83332,2.66668-2.92012-.08335-3.21007,2.08332-.53993,3.25.87675,5.41668,2.41667,9.66665,1.58332,11.33332-.16665,9.83333-3.91665,9.66668-14,5.58332-15,15.33332a12.86466,12.86466,0,0,0-1.83335,2.91668c-.91665,1.91665-1.41665,6.16665.83335,7s2.25,4.08332,2.33332,6a2.36233,2.36233,0,0,0,3.41668,2.16665c1.41665-.83333,3.58332.66667,6.16664-2s4.91668-4.83333,4.91668.58335.33332,7.25,2.41667,7.33332,3.75.5,4.25-.41667a3.76382,3.76382,0,0,1,3.58333-1.33333c1.33332.25,4.83332-5.16667,7-7.25s7.33332-4.16667,7.5,2.41668-3.75,10.83332,3.08332,12.16665,7.72585,2.41667,10.32125,3.91667,4.34543,2.5,6.59543,2.66668,4.33333,4.91665,3.5,7.83332-.83332,6.75,1.33333,7.16668,5.41667,0,7.91667,1.33332,1.5,2.16668,2.5,5,2.66668,10.75,1.58333,13.33333-3,11.16667-.58333,12.75,3.66668,1.33335,7.08333,3.25,5.58335,3.58335,4.58335,6.33335a3.48826,3.48826,0,0,0,3.41665,4.75c2.16667-.08335-.66665,6.58332,0,7.91665s4.25.5,4.25,3.91667-3.75,8.41668-5.66665,9.08333-6.16668,4.41667-6.66668,5.91667c0,0-7.25,6.91668-6.75,7.83333s4.25-.25,5.5,2,5.5,3.5,7.16668,4.5,3.33332.41667,4.33332,3.16667.83333,4.25,1.91668,4.83333-2.08335,3.66667-1.33335,4.5,2.66667,0,5.66667-5.58333,6.25-5.5,7.08333-6.58332,7.91667-13,9.33335-14.75,2.41665-14.08335,3-16.33335,11.83332-13.75,13.5-11.66665,3.41665,1.5,4.41665.66665.33335-1.58333,2.66667-2.33333,8.41668.66668,9.75,0,2.33333-2.33332,3.33333-2.83332,2.16667.5,3-1.66668,5.58335-9.41667,7.08335-11.08332,2.75-8.83335,3.25-10.33335,2.83332-6.83333,2.91665-8.25-.66665-13.75,1.58335-16.58333,15.58332-17.16667,17.25-19.16667,6.41665-7.83333,6-13.58333-1.08335-12.33332-5.08335-12.58332-7.58333-3.58335-9.16665-5.83335-7.66668-11.25-11.25-10.75-8,1.25-8.83335.16667a5.78187,5.78187,0,0,0-4.08333-2.33332c-2.16667-.33335-2.41667-1.58335-3.91667-2.16668s-2.83333,1.16668-4.91665.83333-.66668-5.41665-3.75-6.33333-10.33335-6.91667-12.91668-7.16667-3.83332,4.75-4.58332,4.75-2.08335-.75-1.91668-3.41665,1.33333-4.25-1.91667-4.41668-5.66665-1.16667-5.66665,2,0,6.91668-1.25,5.58333-.25-2.83333-2.41668-3.25-2.16667-3.16665-.83332-5.08333,9-7.75,6.91665-9.91667-4.16665-2-4.25-4S298.92772,115.5664,298.92772,115.5664Z" fill="#e6e7e8" stroke="#231f20" stroke-linecap="round" stroke-linejoin="round" stroke-width="0.5"/><path d="M265.76105,248.39973c1.08335-2.58333-.58333-10.5-1.58333-13.33333s0-3.66667-2.5-5-5.75-.91667-7.91667-1.33335-2.16665-4.25-1.33333-7.16665-1.25-7.66667-3.5-7.83335-4-1.16665-6.59543-2.66665-3.4879-2.58335-10.32125-3.91667-2.91665-5.58333-3.08332-12.16668-5.33333-4.5-7.5-2.41665-5.66668,7.5-7,7.25a3.76376,3.76376,0,0,0-3.58333,1.33333c-.40017.73362-1.54862.61319-3.05882.49317a5.9036,5.9036,0,0,0,1.14215,2.6735c1.75,2.125,3,3.5,2.125,5s-2.6547,13.375-1.57738,14.75-1.07732,2.5,0,4.125-.20232,2.375,0,6-1.17262,4.5.95238,7.875,3.5,4.875,3.5,6.75-2.125,2.25-.875,4.125,3.625,18.5,6.5,15.75,5.875-7,7.5-6,1.375,1.125,4.125,1.25,2.125,5.125,4.125,2.75.5-5.375,4.125-3.5,4,1.375,5-4.625,4.875-11.5,8.375-11.375,6.55655-1.83583,9.375.875c1.0069.96845,1.91631,1.99387,2.778,2.8675A19.87056,19.87056,0,0,1,265.76105,248.39973Z" fill="#e6e7e8" stroke="#231f20" stroke-linecap="round" stroke-linejoin="round" stroke-width="0.5"/><path d="M272.42772,293.98305c2.83333-.83332,7.83333-4.33332,8.16668-6.66665a21.81669,21.81669,0,0,1,.80968-3.152,1.84071,1.84071,0,0,1-1.143-.76467c-.66665-1.33333,2.16667-8,0-7.91668a3.48825,3.48825,0,0,1-3.41665-4.75c1-2.75-1.16668-4.41665-4.58335-6.33332s-4.66665-1.66668-7.08333-3.25c-1.86847-1.22415-1.14637-6.63108-.222-10.21583-.86167-.87363-1.77108-1.899-2.778-2.8675-2.81845-2.71083-5.875-.75-9.375-.875s-7.375,5.375-8.375,11.375c-.53088,3.18533-.88568,4.82037-1.644,5.373,1.29792,2.12,2.647,4.0628,3.31072,4.2103,1.5.33332,1.66665,6.16667,4.66666,5.16667s5.83335,1.5,7.33335,2.33333,7.5,2.66667,7.33332,4.5-2.33332,5.16667-1.83332,6.83332-2.32653,4.16668,1.83673,5.16668S269.5944,294.8164,272.42772,293.98305Z" fill="#e6e7e8" stroke="#231f20" stroke-linecap="round" stroke-linejoin="round" stroke-width="0.5"/><path d="M283.01105,329.14973c-.75-.83333,2.41667-3.91668,1.33335-4.5s-.91668-2.08333-1.91668-4.83333-2.66667-2.16667-4.33332-3.16667-5.91668-2.25-7.16668-4.5c-1.24655-2.24376-4.97847-1.09025-5.495-1.9929a35.17627,35.17627,0,0,0-1.17168,5.32622c-.47782,3.1854-1.41257,13.21432-2.80357,16.2805a13.20514,13.20514,0,0,0,4.0536,1.13618c1.41667,0,2.66667,1.5,3,2s6,2,8.08335.75,6-.66668,6.66665-4.25c.10465-.56258.25665-1.23823.43835-1.97733A.81853.81853,0,0,1,283.01105,329.14973Z" fill="#e6e7e8" stroke="#231f20" stroke-linecap="round" stroke-linejoin="round" stroke-width="0.5"/><path d="M208.92772,204.3164a5.90426,5.90426,0,0,1-1.14215-2.6735c.3633.02887.70282.05645,1.01865.07325-.64243-.03408-1.39372-.1171-2.20983-.14975-2.08332-.08332-2.41667-1.91667-2.41667-7.33332s-2.33333-3.25-4.91665-.58335-4.75,1.16667-6.16667,2a2.36233,2.36233,0,0,1-3.41668-2.16665c-.08332-1.91668-.08332-5.16668-2.33332-6s-1.75-5.08335-.83333-7a12.86425,12.86425,0,0,1,1.83333-2.91668c.97352-9.49185,10.71135-15.19047,14.68642-15.33192-1.1304-.75678-2.31678-1.98523-1.43643-3.5014,1.5-2.58335,3.25-7-.66667-7s-6.66665,0-7.5,1.5-4.91665-.25-5.58332-1-2.16668-5.41668-3.33333-6.08335-6.5-6.58333-7.41667-5.33333-.83333,2.66668,0,5.58333-3.41668,8.33335-5.41668,9.25-9.25,5.75-10.25,8.91667-2.66665,8.83333-4,7.66668-4.08332-1.91668-5.75-2.58335-.41665-3.25,0-4.66665-5.66665,2.75-4.58332,7,1.25,6.33332,1.16667,7,4.66665,3,6.75,5.58332,3.58333,2.58333,4.83333,7.5,2.91667,9.58333,5.08332,10.41668,3.16668,6.66665,5.75,9.16665a17.90232,17.90232,0,0,1,5.102,10.08335c.4814,3.75,12.4814,8.16665,18.4814,11.91665s9.25,9.41667,11.08332,8.25,3.64825-1.17216,3.89611-3.83955a23.67785,23.67785,0,0,0,.23487-3.86878c-.20233-3.625,1.07735-4.375,0-6s1.07735-2.75,0-4.125.70235-13.25,1.57735-14.75S210.67772,206.4414,208.92772,204.3164Z" fill="#e6e7e8" stroke="#231f20" stroke-linecap="round" stroke-linejoin="round" stroke-width="0.5"/><path d="M149.42772,155.4414c-.125,2.125-1,5.875.875,4.75s3.375-3.625,4.25-3,.875,1.53713.125,3.20605a32.90755,32.90755,0,0,1-3,4.5856c-.41667,1.41668-1.66667,4,0,4.66668s4.41668,1.41667,5.75,2.58332,3-4.5,4-7.66665,8.25-8,10.25-8.91667,6.25-6.33333,5.41668-9.25-.91668-4.33333,0-5.58333a.41687.41687,0,0,1,.3099-.1652c-1.54583-.40192-5.03875-1.18542-7.22658-.7098-2.875.625-5-1.375-7.5-2.75a6.16342,6.16342,0,0,0-7.875,1.375c-1.875,2.5-2.25,6.875-2.875,7.125s-1.625,2.625-1.625,3.625-1.5.75-1.5,1.625S149.55272,153.3164,149.42772,155.4414Z" fill="#e6e7e8" stroke="#231f20" stroke-linecap="round" stroke-linejoin="round" stroke-width="0.5"/><path d="M193.42775,153.23305c.83332-1.5,3.58332-1.5,7.5-1.5s2.16662,4.41668.66662,7c-.88037,1.5162.306,2.74465,1.4364,3.50143.1081-.00385.2143-.00583.3136-.00143,3.75.16668,3.08338-8,3.9167-9.66665s-.1667-9.16667-1.58332-11.33335-1.16668-3.25-.87678-5.41665,2.7934-1.75,3.2101-2.08335-1.5-1.91665-2.83332-2.66665,1.16662-3.66667,2.91662-3a4.88807,4.88807,0,0,0,4.6667-.83335,3.42768,3.42768,0,0,1,4.5-.16665c.54485.379,1.4538.96017,2.54785,1.59965-.50538-1.79832-1.60958-5.32355-2.71455-6.183a2.34939,2.34939,0,0,1,0-3.66665c.83338-.75-1.66662-3.66667-1.66662-5.08335s4.5-12.75.83332-12.33332-6.9167,2-8.08332,1.25-3.5-4.75-4.66668-4.83333-4.83332.91665-6.25.5-5.25-.66667-5.33332-4.25a13.13008,13.13008,0,0,0-2.08338-7.25c-.91662-1.33335-1-5.41667,0-7.16667s4.33338-7.08333,5.75-8.08333,3.1667-2,3.1667-2.66667-.4167-2.41668-1.75-1.5-7.58332,7.5-9.1667,7.75-4.75.83332-5.3333,2.33332-4.1667,0-4.6667,1.41668.1667,6.91667-.75,7.75-5.41662,4.08332-5.8333,5.41667.25,5.41665-.83332,5-1.75-2.33335-2.41668-1.41667-4.9167,2.33332-3.75,4.75,3,2.58332,2.91668,3.66667-1.66668,3.83333-.75,6.16665,2.08332,6.08335,1.41662,6.41668a2.5811,2.5811,0,0,0-.75,3.41667c.83338,1.66665-1.0833,3.25-1.41662,5.41665s-2.25,2.16668-3,2.25a3.3546,3.3546,0,0,0-2.58338,3.58335c0,2.58333-1.16662,1.91665-1.5833,2.5a4.105,4.105,0,0,0-.64357,2.73915,6.72621,6.72621,0,0,1,4.81025.63585c2.5,1.375,4.625,3.375,7.5,2.75,2.1878-.47562,5.68072.30788,7.22657.7098h-.00012c1.45055-.15155,6.0352,4.88615,7.10687,5.49853,1.16668.66667,2.66668,5.33332,3.3333,6.08332S192.59437,154.73305,193.42775,153.23305Zm-15.25183-12.36943.0094.00281.00073.00212Z" fill="#e6e7e8" stroke="#231f20" stroke-linecap="round" stroke-linejoin="round" stroke-width="0.5"/><path d="M281.40408,284.16442a21.81648,21.81648,0,0,0-.80968,3.152c-.33338,2.33333-5.33338,5.83333-8.1667,6.66665s-2.8333-.83332-6.99657-1.83332-1.33673-3.5-1.83673-5.16668,1.66662-5,1.8333-6.83332-5.8333-3.66668-7.3333-4.5-4.33338-3.33333-7.33338-2.33333-3.16663-4.83335-4.66663-5.16667c-.66377-.1475-2.01282-2.09031-3.31072-4.2103l.019-.01665c-.6704.51025-1.65777.15685-3.375-.73138-3.625-1.875-2.125,1.125-4.125,3.5s-1.375-2.625-4.125-2.75-2.5-.25-4.125-1.25c-1.3728-.8448-3.72692,2.05723-6.158,4.63643.98785.8374,1.85206,1.93905,1.533,3.08774-.66667,2.40083-5.66667,6.90083-5.8333,8.06748s1.5,9.16668,1,10.5-6,10.66668-6,14a50.89668,50.89668,0,0,1-1,11.5c-1,4.83335-2.83337,9.5,0,13.16668s4.66663,7,2.66663,11.5-3.5,13.83332-3.16663,17-2.19092,11.16667-1.01214,15.16667,3.01214,21.16665,3.84544,21.5,2.6667,6,1.83333,11.5-.33333,12.5-2,18.5.5,6.5,2.16667,6.66665c1.5826.15825-2.9946,6.627,1.8187,7.27957,1.50811,1.60475,5.62783,5.848,7.51465,6.38711,2.33335.66667,6.91668,4.08332,8.91668,3s2.16667-5.25,3.91667-5.83333.58333-1.33335-1.33335-1.5-3.16665-1.16667-3-2-.83332-1.75-1.91665-1.58335a6.85573,6.85573,0,0,0-2.58337,1.58335s-6.16663-6.83335,1-13.16667a22.2047,22.2047,0,0,1,1.16667-6c1-2.5,4.5-3.33333,4.6667-6.16668s-7.1667-6.5-6.83337-10.83332,5.66667-5.16668,6-5.83333,1.16667-1,2-3,.16667-5.33335,1-6.66667,1-2.66668,1-4.83333-4.16663-9.16667-3-10,3.5,2.33333,5.33337,2.16665,4.16663.5,5-1.33332-.83337-11.5.8333-12,9,2.5,13-.83333,7.6667-4.16667,8-7,1.83332-5.66667.6667-8,1.8333-5.66667-1-6.16667-7.33338-2.5-5.83338-5,2.5-13.33333,3-16.66668a35.17627,35.17627,0,0,1,1.17168-5.32622l-.005-.0071c-.09867-.18088.10743-.59756.49707-1.14645l.01173-.01811.0056-.006a72.88772,72.88772,0,0,1,6.2356-6.66278c.5-1.5,4.75-5.25,6.6667-5.91667s5.66662-5.66668,5.66662-9.08333C284.511,284.88127,282.69132,284.60487,281.40408,284.16442Z" fill="#e6e7e8" stroke="#231f20" stroke-linecap="round" stroke-linejoin="round" stroke-width="0.5"/><path d="M224.26107,443.14973c-1.88685-.53908-6.0066-4.78236-7.51465-6.38711v0c-.13448-.01822-.25892-.04257-.3791-.06962q-.04415-.00995-.0869-.02063c-.115-.02862-.2256-.05992-.32748-.09652l-.00335-.00108q-.11726-.04226-.22362-.09112c-.02295-.01055-.04322-.02267-.06543-.0337-.02175-.0108-.0431-.0218-.06422-.03305a2.28481,2.28481,0,0,1-.24188-.14607l-.00385-.00245a2.00021,2.00021,0,0,1-.21-.17325l-.04272-.0414a1.897,1.897,0,0,1-.16955-.19l-.00185-.0022a1.92008,1.92008,0,0,1-.1405-.21518l-.02508-.04577a2.08065,2.08065,0,0,1-.10657-.228l-.00025-.00062a2.37327,2.37327,0,0,1-.08-.25l-.01185-.047a3.0878,3.0878,0,0,1-.08038-.53553l-.00257-.04462q-.01162-.21633-.001-.441.00312-.06815.00793-.13673l.00305-.03925c.01562-.20055.04162-.40393.07537-.608l.00411-.02392c.04894-.2909.114-.5813.18319-.86653-.01875.07711-.03835.15313-.05607.231.02835-.1244.05827-.24767.08877-.3698l.01986-.07793.02947-.11467q.03468-.1344.0692-.2653c.04683-.17635.0931-.34875.1364-.5133-.03257.12387-.067.25262-.10193.38352.041-.15345.08065-.30217.11811-.44577l-.00873.0338.00873-.0338c.03419-.13135.06679-.2591.09527-.38007.016-.06775.0305-.13318.044-.19718.01757-.0834.03287-.16358.0454-.23982q.0183-.1121.02795-.21286l.00287-.03159q.00722-.08922.0057-.168l-.00012-.00667a1.01159,1.01159,0,0,0-.013-.14613l-.004-.02012a.54542.54542,0,0,0-.03985-.12468l-.00163-.00327a.34842.34842,0,0,0-.06437-.09355l-.0042-.00385.0042.00385a.30916.30916,0,0,0-.09583-.06672l-.00522-.00186.00522.00186a.41713.41713,0,0,0-.1304-.03346c-1.66669-.16662-3.83332-.66662-2.16669-6.66662s1.16669-13,2-18.5-1-11.16667-1.83331-11.5-2.66669-17.5-3.84547-21.5,1.34547-12,1.01215-15.16667,1.16663-12.5,3.16663-17,.16669-7.83333-2.66663-11.5-1-8.33333,0-13.16671a50.89641,50.89641,0,0,0,1-11.5c0-3.33329,5.5-12.66662,6-14s-1.16668-9.33329-1-10.5,5.16663-5.66662,5.83332-8.06742c.319-1.14875-.54517-2.25037-1.533-3.08777h0c.124.10514.2461.2145.36412.32757-.118-.11307-.2401-.22243-.36412-.32757-.44653.4738-.89575.93679-1.34192,1.36357-2.875,2.75-5.25-13.875-6.5-15.75s.875-2.25.875-4.125-1.375-3.375-3.5-6.75a5.99992,5.99992,0,0,1-1.1745-4.1711l-4.7885,4.11015s3.42869,8.93595,3.32079,11.56095.42921,14.125-.58937,15.875c-1.01842,1.75.32227,11.75.58937,13.625s-2.48279,2.5-1.85779,3.25,1.375,4.125.375,5.75-.5,3-.375,5.5-1.551,5-1.463,7.25,2.838,4.75,1.588,7.25-.5,9-.125,12.875a53.36613,53.36613,0,0,1-.25,11.19385c-.375,2.55615-1.75,11.80615-2.375,12.68115s-1.625,2.125-1.5,3.5-1.875,1.375-1.5,2.5,2.5,5.625,2.875,8.125-.75,1.125-.5,6.25.57807,9.125,2.414,9,3.63825,1.625,3.67462,7.625-1.83862,6.625-1.58862,7.625-.625,3.25-.125,3.5,1.70832,2.54168,1.125,3.875-.41668,1.5-.5,3.08333a2.10691,2.10691,0,0,1-1.95838,2.04167c-.54162.04168-.8333-1.33332-1.04162-1.25a1.97169,1.97169,0,0,0-.79168,1.25092c-.08332.58241-1.95832.91576-1.7917,1.54076a1.76149,1.76149,0,0,0,2.5.66665c.83338-.75,1.70838-1.04165,2.0417-.45833s1.25,8.54168.4583,8.875-1.71355-.70832-2.00262-1.20832-1.20568-1.08335-1.414-.45835-1.66668,1.54577-.70838,1.73122,1.0417,1.22713,1.375,1.89378,1.08338,1.45835,1,2.04167-1.4583,4.41668-.0833,5.08333.625.91667.66668,1.95835.66662,2,1.58332.75.91668.04165,1.4583.83332-.156.45833-.203,2,.953,4.04168,1.578,3,.1667,1.08333.375,1.91668,1.45838,2.16665,2.25,3.66665c.76863,1.45634,1.773,4.01194,3.08922,4.12137,1.11005.5171,2.98853,1.28835,3.78578,1.00363,1.1667-.41665.9167-1.2108,2.6667.06127s1.679.68873,3.21452.68873,2.53548.93367,3.11878.1335a.70072.70072,0,0,0,.07367-.44283A43.7572,43.7572,0,0,0,224.26107,443.14973Z" fill="#e6e7e8" stroke="#231f20" stroke-linecap="round" stroke-linejoin="round" stroke-width="0.5"/><path d="M269.55272,118.0664c-1.125-1.5-4.875-5.375-3.625-7.5s3.25-5.5,3.625-6.875-2.62884-6.625-3.87692-6.375-2.62308,2.60772-2.99808-.00862-1.25-5.36638-2.5-6.36638a23.922,23.922,0,0,0-4.4375-2.25c-.125.5-4.8125,3.125-4.8125,4.25s2.08333,1.625-1.08333,4.625.95833,6.29165,2.25,7.75a2.97385,2.97385,0,0,1,.50692,1.56225l-.02077.00668c4.3487-1.31353,3.84717,2.31689,3.84717,2.93107v11.625c0,6.625,4,6.625,8.75,5.875s5-2,8.25-1.44445c.1103.01888.21583.03443.31823.04783C272.61138,123.61928,270.37745,119.166,269.55272,118.0664Z" fill="#e6e7e8" stroke="#231f20" stroke-linecap="round" stroke-linejoin="round" stroke-width="0.5"/><path d="M273.746,125.91978c2.91518.38187,2.70723-1.38731,3.43177-2.35338.60253-.80337,4.10823.007,6.24176,1.00478,2.90042-1.974,2.412-7.13063,2.69574-7.75478.3125-.6875-.9375-6.5-1.81169-7.5625s1.24919-4,.93669-4.75-4.6875-.4375-8.8125-1.5a16.31283,16.31283,0,0,0-6.92354-.18787,1.92312,1.92312,0,0,1,.04854.87537c-.375,1.375-2.375,4.75-3.625,6.875s2.5,6,3.625,7.5C270.37745,119.166,272.61138,123.61928,273.746,125.91978Z" fill="#e6e7e8" stroke="#231f20" stroke-linecap="round" stroke-linejoin="round" stroke-width="0.5"/><path d="M283.41948,124.57118a6.04621,6.04621,0,0,1,1.25824.74522c1.5,1.25,4,0,6,0s8.25-9.75,8.25-9.75-2.66667-4.91667-4.91667-6.58335-8.77083-4.47915-8.77083-4.47915c.3125.75-1.81089,3.6875-.93669,4.75s2.12419,6.875,1.81169,7.5625C285.83152,117.44055,286.3199,122.59717,283.41948,124.57118Z" fill="#e6e7e8" stroke="#231f20" stroke-linecap="round" stroke-linejoin="round" stroke-width="0.5"/><path d="M191.92775,94.0664c.08332,3.58333,3.91662,3.83333,5.33332,4.25s5.0833-.58335,6.25-.5,3.5,4.08333,4.66668,4.83333,4.41662-.83333,8.08332-1.25-.83332,10.91667-.83332,12.33332,2.5,4.33335,1.66662,5.08335a2.34939,2.34939,0,0,0,0,3.66665c1.105.85945,2.20917,4.38468,2.71455,6.183-.27-.1578-.5284-.31193-.77313-.46045,2.74146,1.664,7.23653,4.0453,9.72525,4.1108,3.16668.08333,5.58335-4.66667,7-5.5s2-3-.33332-3.33335-2.75-3.41665-1.83333-5.91665-.91667-3.83335-1.16667-5.33335,5.5.08335,6.5.33335,1.75.75,10-4a17.92615,17.92615,0,0,1,3.6736-1.68775,2.97385,2.97385,0,0,0-.50692-1.56225c-1.29168-1.45835-5.41668-4.75-2.25-7.75s1.08333-3.5,1.08333-4.625,4.6875-3.75,4.8125-4.25-1-3.5-2.875-2.375-3.5625,2.624-3-.2505.125-5.6245-2.375-5.9995-5.6875-2.9375-6.3125-4.875-5.375-1-6.9375.875-2.4375,3.375-5.5,2.125-4.4375-3-7.3125-1.6875-7.5625,3.25-7.6875.4375-.625-4.875-3.75-5.5625-5.1875-3.8125-5.8125-3.0625.3125,3.625-.8125,4.3125-4.9375,2-4.75,4.3125,2,7.625,1.375,8.0625-2.0625,2.3125-2.75,1.625-3.25-4.1875-2.3125-5.5a7.58587,7.58587,0,0,0,1.375-4.6875c-.25-1.0625-.59507-2.34182-1.57877-2.5625a2.73013,2.73013,0,0,0-1.42118.38218c-1.3785,1.93447-2.8501,4.3241-3.4584,5.38865-1,1.75-.91662,5.83332,0,7.16667A13.13008,13.13008,0,0,1,191.92775,94.0664Z" fill="#00a79d" stroke="#231f20" stroke-linecap="round" stroke-linejoin="round" stroke-width="0.5"/><text transform="translate(318.02734 88.69141)" font-size="11.98118" fill="#00a79d" font-family="Oswald-SemiBold, Oswald" font-weight="600" letter-spacing="0.19998em">VENEZUELA</text><path d="M312.01465,85.30382H230.27709a1,1,0,0,1,0-2h81.73756a1,1,0,0,1,0,2Z" fill="#fff"/><circle cx="230.27704" cy="84.30378" r="3.0625" fill="#fff"/></g></svg>